<svg width="340" height="72" viewBox="0 0 340 72" fill="none" xmlns="http://www.w3.org/2000/svg">
  <defs>
    <linearGradient id="g1" x1="10" y1="10" x2="62" y2="62" gradientUnits="userSpaceOnUse">
      <stop stop-color="#0B6E69"/>
      <stop offset="1" stop-color="#1EA399"/>
    </linearGradient>
    <linearGradient id="g2" x1="45" y1="10" x2="62" y2="48" gradientUnits="userSpaceOnUse">
      <stop stop-color="#E39A2D"/>
      <stop offset="1" stop-color="#CF7B1F"/>
    </linearGradient>
  </defs>

  <rect x="2" y="6" width="64" height="60" rx="16" fill="#F2F7F6"/>
  <rect x="2.5" y="6.5" width="63" height="59" rx="15.5" stroke="#C9DAD7"/>
  <path d="M21 24.5C24.9 20.1 31.4 17.8 37.8 18.4C44.2 19 50.1 22.2 53.6 27.6" stroke="url(#g1)" stroke-width="5" stroke-linecap="round"/>
  <path d="M17.2 34.2C20.8 30.4 26 28.2 31.5 28.2C37 28.2 42.2 30.4 45.8 34.2" stroke="url(#g1)" stroke-width="5" stroke-linecap="round"/>
  <circle cx="31.5" cy="45.2" r="5.3" fill="url(#g1)"/>
  <path d="M47 17L59 29" stroke="url(#g2)" stroke-width="6" stroke-linecap="round"/>

  <text x="79" y="34" fill="#16352F" font-family="Segoe UI, Trebuchet MS, sans-serif" font-size="28" font-weight="800" letter-spacing="0.5">CONECTA</text>
  <text x="242" y="34" fill="#0B6E69" font-family="Segoe UI, Trebuchet MS, sans-serif" font-size="28" font-weight="800">OLT</text>
  <text x="81" y="52" fill="#4F6760" font-family="Segoe UI, Trebuchet MS, sans-serif" font-size="11" font-weight="600" letter-spacing="1.4">NOC PLATFORM</text>
</svg>
